<mxfile host="Electron" modified="2024-09-08T15:30:57.545Z" agent="Mozilla/5.0 (Windows NT 10.0; Win64; x64) AppleWebKit/537.36 (KHTML, like Gecko) draw.io/22.1.11 Chrome/114.0.5735.289 Electron/25.9.8 Safari/537.36" etag="QWRCTjL4-qrhz4vdmBE7" version="22.1.11" type="device">
  <diagram name="第 1 页" id="2sfblSXKjOA17WVp8gcU">
    <mxGraphModel dx="1158" dy="727" grid="1" gridSize="10" guides="1" tooltips="1" connect="1" arrows="1" fold="1" page="1" pageScale="1" pageWidth="827" pageHeight="1169" math="0" shadow="0">
      <root>
        <mxCell id="0" />
        <mxCell id="1" parent="0" />
        <mxCell id="42kxm2y_DV3wNSiduFRc-1" value="User" style="swimlane;childLayout=stackLayout;horizontal=1;startSize=50;horizontalStack=0;rounded=1;fontSize=14;fontStyle=0;strokeWidth=2;resizeParent=0;resizeLast=1;shadow=0;dashed=0;align=center;arcSize=4;whiteSpace=wrap;html=1;" parent="1" vertex="1">
          <mxGeometry x="230" y="260" width="160" height="230" as="geometry" />
        </mxCell>
        <mxCell id="42kxm2y_DV3wNSiduFRc-2" value="id&lt;br&gt;role&lt;br&gt;username&lt;br&gt;password&lt;br&gt;salt&lt;br&gt;avatar_url&lt;br&gt;phone&lt;br&gt;introduction&lt;br&gt;is_banned&lt;br&gt;is_influencer&lt;br&gt;create_time" style="align=left;strokeColor=none;fillColor=none;spacingLeft=4;fontSize=12;verticalAlign=top;resizable=0;rotatable=0;part=1;html=1;" parent="42kxm2y_DV3wNSiduFRc-1" vertex="1">
          <mxGeometry y="50" width="160" height="180" as="geometry" />
        </mxCell>
        <mxCell id="Wu_LGJJBqS0HY9fRjObO-11" style="rounded=0;orthogonalLoop=1;jettySize=auto;html=1;exitX=1;exitY=1;exitDx=0;exitDy=0;entryX=0;entryY=0.25;entryDx=0;entryDy=0;" parent="1" source="Wu_LGJJBqS0HY9fRjObO-9" target="42kxm2y_DV3wNSiduFRc-2" edge="1">
          <mxGeometry relative="1" as="geometry" />
        </mxCell>
        <mxCell id="Wu_LGJJBqS0HY9fRjObO-9" value="relationship" style="shape=rhombus;perimeter=rhombusPerimeter;whiteSpace=wrap;html=1;align=center;" parent="1" vertex="1">
          <mxGeometry x="30" y="310" width="120" height="60" as="geometry" />
        </mxCell>
        <mxCell id="Wu_LGJJBqS0HY9fRjObO-12" style="rounded=0;orthogonalLoop=1;jettySize=auto;html=1;exitX=0;exitY=0;exitDx=0;exitDy=0;entryX=1;entryY=0;entryDx=0;entryDy=0;" parent="1" source="42kxm2y_DV3wNSiduFRc-2" target="Wu_LGJJBqS0HY9fRjObO-9" edge="1">
          <mxGeometry relative="1" as="geometry" />
        </mxCell>
        <mxCell id="Wu_LGJJBqS0HY9fRjObO-16" style="rounded=0;orthogonalLoop=1;jettySize=auto;html=1;entryX=0.5;entryY=0;entryDx=0;entryDy=0;endArrow=none;endFill=0;" parent="1" source="Wu_LGJJBqS0HY9fRjObO-15" target="Wu_LGJJBqS0HY9fRjObO-9" edge="1">
          <mxGeometry relative="1" as="geometry" />
        </mxCell>
        <mxCell id="Wu_LGJJBqS0HY9fRjObO-15" value="relation" style="whiteSpace=wrap;html=1;align=center;" parent="1" vertex="1">
          <mxGeometry x="40" y="220" width="100" height="40" as="geometry" />
        </mxCell>
        <mxCell id="Wu_LGJJBqS0HY9fRjObO-20" style="rounded=0;orthogonalLoop=1;jettySize=auto;html=1;exitX=1;exitY=0.5;exitDx=0;exitDy=0;shape=link;entryX=0;entryY=0;entryDx=0;entryDy=0;" parent="1" source="Wu_LGJJBqS0HY9fRjObO-19" target="Wu_LGJJBqS0HY9fRjObO-48" edge="1">
          <mxGeometry relative="1" as="geometry">
            <mxPoint x="710" y="210" as="targetPoint" />
          </mxGeometry>
        </mxCell>
        <mxCell id="Wu_LGJJBqS0HY9fRjObO-21" style="rounded=0;orthogonalLoop=1;jettySize=auto;html=1;exitX=0;exitY=0.5;exitDx=0;exitDy=0;entryX=1;entryY=0.5;entryDx=0;entryDy=0;endArrow=classic;endFill=1;" parent="1" source="Wu_LGJJBqS0HY9fRjObO-19" target="42kxm2y_DV3wNSiduFRc-2" edge="1">
          <mxGeometry relative="1" as="geometry" />
        </mxCell>
        <mxCell id="Wu_LGJJBqS0HY9fRjObO-19" value="has" style="shape=rhombus;double=1;perimeter=rhombusPerimeter;whiteSpace=wrap;html=1;align=center;" parent="1" vertex="1">
          <mxGeometry x="480" y="60" width="120" height="60" as="geometry" />
        </mxCell>
        <mxCell id="Wu_LGJJBqS0HY9fRjObO-47" value="token_version" style="swimlane;childLayout=stackLayout;horizontal=1;startSize=50;horizontalStack=0;rounded=1;fontSize=14;fontStyle=0;strokeWidth=2;resizeParent=0;resizeLast=1;shadow=0;dashed=0;align=center;arcSize=4;whiteSpace=wrap;html=1;" parent="1" vertex="1">
          <mxGeometry x="667" y="40" width="160" height="120" as="geometry" />
        </mxCell>
        <mxCell id="Wu_LGJJBqS0HY9fRjObO-48" value="user_id&lt;br&gt;client&lt;br&gt;version" style="align=left;strokeColor=none;fillColor=none;spacingLeft=4;fontSize=12;verticalAlign=top;resizable=0;rotatable=0;part=1;html=1;" parent="Wu_LGJJBqS0HY9fRjObO-47" vertex="1">
          <mxGeometry y="50" width="160" height="70" as="geometry" />
        </mxCell>
        <mxCell id="22Rc8J1v0Y2fWhT6ENVS-44" style="rounded=0;orthogonalLoop=1;jettySize=auto;html=1;exitX=0;exitY=0.5;exitDx=0;exitDy=0;entryX=1;entryY=0.5;entryDx=0;entryDy=0;" edge="1" parent="1" source="Wu_LGJJBqS0HY9fRjObO-52" target="42kxm2y_DV3wNSiduFRc-2">
          <mxGeometry relative="1" as="geometry" />
        </mxCell>
        <mxCell id="Wu_LGJJBqS0HY9fRjObO-52" value="has" style="shape=rhombus;double=1;perimeter=rhombusPerimeter;whiteSpace=wrap;html=1;align=center;" parent="1" vertex="1">
          <mxGeometry x="500" y="220" width="120" height="60" as="geometry" />
        </mxCell>
        <mxCell id="Wu_LGJJBqS0HY9fRjObO-55" style="rounded=0;orthogonalLoop=1;jettySize=auto;html=1;exitX=1;exitY=0.5;exitDx=0;exitDy=0;shape=link;entryX=0;entryY=0;entryDx=0;entryDy=0;" parent="1" source="Wu_LGJJBqS0HY9fRjObO-52" target="Wu_LGJJBqS0HY9fRjObO-57" edge="1">
          <mxGeometry relative="1" as="geometry">
            <mxPoint x="640" y="220" as="sourcePoint" />
            <mxPoint x="720" y="330" as="targetPoint" />
          </mxGeometry>
        </mxCell>
        <mxCell id="Wu_LGJJBqS0HY9fRjObO-56" value="token_batch" style="swimlane;childLayout=stackLayout;horizontal=1;startSize=50;horizontalStack=0;rounded=1;fontSize=14;fontStyle=0;strokeWidth=2;resizeParent=0;resizeLast=1;shadow=0;dashed=0;align=center;arcSize=4;whiteSpace=wrap;html=1;" parent="1" vertex="1">
          <mxGeometry x="667" y="200" width="160" height="120" as="geometry" />
        </mxCell>
        <mxCell id="Wu_LGJJBqS0HY9fRjObO-57" value="user_id&lt;br&gt;batch" style="align=left;strokeColor=none;fillColor=none;spacingLeft=4;fontSize=12;verticalAlign=top;resizable=0;rotatable=0;part=1;html=1;" parent="Wu_LGJJBqS0HY9fRjObO-56" vertex="1">
          <mxGeometry y="50" width="160" height="70" as="geometry" />
        </mxCell>
        <mxCell id="22Rc8J1v0Y2fWhT6ENVS-2" value="Post" style="swimlane;childLayout=stackLayout;horizontal=1;startSize=50;horizontalStack=0;rounded=1;fontSize=14;fontStyle=0;strokeWidth=2;resizeParent=0;resizeLast=1;shadow=0;dashed=0;align=center;arcSize=4;whiteSpace=wrap;html=1;" vertex="1" parent="1">
          <mxGeometry x="230" y="700" width="160" height="130" as="geometry" />
        </mxCell>
        <mxCell id="22Rc8J1v0Y2fWhT6ENVS-3" value="id&lt;br&gt;create_time&lt;br&gt;content&lt;br&gt;img_url" style="align=left;strokeColor=none;fillColor=none;spacingLeft=4;fontSize=12;verticalAlign=top;resizable=0;rotatable=0;part=1;html=1;" vertex="1" parent="22Rc8J1v0Y2fWhT6ENVS-2">
          <mxGeometry y="50" width="160" height="80" as="geometry" />
        </mxCell>
        <mxCell id="22Rc8J1v0Y2fWhT6ENVS-5" style="rounded=0;orthogonalLoop=1;jettySize=auto;html=1;exitX=0.5;exitY=0;exitDx=0;exitDy=0;entryX=0.5;entryY=1;entryDx=0;entryDy=0;" edge="1" parent="1" source="22Rc8J1v0Y2fWhT6ENVS-48" target="42kxm2y_DV3wNSiduFRc-2">
          <mxGeometry relative="1" as="geometry">
            <mxPoint x="310" y="570" as="sourcePoint" />
          </mxGeometry>
        </mxCell>
        <mxCell id="22Rc8J1v0Y2fWhT6ENVS-6" style="rounded=0;orthogonalLoop=1;jettySize=auto;html=1;exitX=0.5;exitY=1;exitDx=0;exitDy=0;entryX=0.5;entryY=0;entryDx=0;entryDy=0;endArrow=none;endFill=0;shape=link;" edge="1" parent="1" source="22Rc8J1v0Y2fWhT6ENVS-48" target="22Rc8J1v0Y2fWhT6ENVS-2">
          <mxGeometry relative="1" as="geometry">
            <mxPoint x="310" y="630" as="sourcePoint" />
          </mxGeometry>
        </mxCell>
        <mxCell id="22Rc8J1v0Y2fWhT6ENVS-7" value="comment" style="swimlane;childLayout=stackLayout;horizontal=1;startSize=50;horizontalStack=0;rounded=1;fontSize=14;fontStyle=0;strokeWidth=2;resizeParent=0;resizeLast=1;shadow=0;dashed=0;align=center;arcSize=4;whiteSpace=wrap;html=1;" vertex="1" parent="1">
          <mxGeometry x="610" y="700" width="160" height="135" as="geometry" />
        </mxCell>
        <mxCell id="22Rc8J1v0Y2fWhT6ENVS-8" value="post_id&lt;br&gt;user_id&lt;br&gt;create_time&lt;br&gt;content" style="align=left;strokeColor=none;fillColor=none;spacingLeft=4;fontSize=12;verticalAlign=top;resizable=0;rotatable=0;part=1;html=1;" vertex="1" parent="22Rc8J1v0Y2fWhT6ENVS-7">
          <mxGeometry y="50" width="160" height="85" as="geometry" />
        </mxCell>
        <mxCell id="22Rc8J1v0Y2fWhT6ENVS-17" style="rounded=0;orthogonalLoop=1;jettySize=auto;html=1;exitX=0;exitY=0.5;exitDx=0;exitDy=0;entryX=1;entryY=0.25;entryDx=0;entryDy=0;" edge="1" parent="1" source="22Rc8J1v0Y2fWhT6ENVS-11" target="22Rc8J1v0Y2fWhT6ENVS-3">
          <mxGeometry relative="1" as="geometry" />
        </mxCell>
        <mxCell id="22Rc8J1v0Y2fWhT6ENVS-18" style="rounded=0;orthogonalLoop=1;jettySize=auto;html=1;exitX=1;exitY=0.5;exitDx=0;exitDy=0;entryX=0;entryY=0.25;entryDx=0;entryDy=0;endArrow=none;endFill=0;" edge="1" parent="1" source="22Rc8J1v0Y2fWhT6ENVS-11" target="22Rc8J1v0Y2fWhT6ENVS-8">
          <mxGeometry relative="1" as="geometry" />
        </mxCell>
        <mxCell id="22Rc8J1v0Y2fWhT6ENVS-11" value="belong" style="shape=rhombus;perimeter=rhombusPerimeter;whiteSpace=wrap;html=1;align=center;" vertex="1" parent="1">
          <mxGeometry x="440" y="740" width="120" height="60" as="geometry" />
        </mxCell>
        <mxCell id="22Rc8J1v0Y2fWhT6ENVS-15" style="rounded=0;orthogonalLoop=1;jettySize=auto;html=1;exitX=0;exitY=0.5;exitDx=0;exitDy=0;entryX=0.5;entryY=1;entryDx=0;entryDy=0;" edge="1" parent="1" source="22Rc8J1v0Y2fWhT6ENVS-45" target="42kxm2y_DV3wNSiduFRc-2">
          <mxGeometry relative="1" as="geometry">
            <mxPoint x="550" y="555" as="sourcePoint" />
          </mxGeometry>
        </mxCell>
        <mxCell id="22Rc8J1v0Y2fWhT6ENVS-16" style="rounded=0;orthogonalLoop=1;jettySize=auto;html=1;exitX=0.5;exitY=1;exitDx=0;exitDy=0;entryX=0.5;entryY=0;entryDx=0;entryDy=0;endArrow=none;endFill=0;shape=link;" edge="1" parent="1" source="22Rc8J1v0Y2fWhT6ENVS-45" target="22Rc8J1v0Y2fWhT6ENVS-7">
          <mxGeometry relative="1" as="geometry">
            <mxPoint x="610" y="585" as="sourcePoint" />
          </mxGeometry>
        </mxCell>
        <mxCell id="22Rc8J1v0Y2fWhT6ENVS-34" style="rounded=0;orthogonalLoop=1;jettySize=auto;html=1;exitX=0.5;exitY=0;exitDx=0;exitDy=0;entryX=0.5;entryY=1;entryDx=0;entryDy=0;" edge="1" parent="1" source="22Rc8J1v0Y2fWhT6ENVS-33" target="42kxm2y_DV3wNSiduFRc-2">
          <mxGeometry relative="1" as="geometry" />
        </mxCell>
        <mxCell id="22Rc8J1v0Y2fWhT6ENVS-35" style="rounded=0;orthogonalLoop=1;jettySize=auto;html=1;exitX=0.5;exitY=1;exitDx=0;exitDy=0;entryX=0;entryY=0.25;entryDx=0;entryDy=0;endArrow=none;endFill=0;" edge="1" parent="1" source="22Rc8J1v0Y2fWhT6ENVS-33" target="22Rc8J1v0Y2fWhT6ENVS-3">
          <mxGeometry relative="1" as="geometry" />
        </mxCell>
        <mxCell id="22Rc8J1v0Y2fWhT6ENVS-33" value="like" style="shape=rhombus;perimeter=rhombusPerimeter;whiteSpace=wrap;html=1;align=center;" vertex="1" parent="1">
          <mxGeometry x="80" y="570" width="120" height="60" as="geometry" />
        </mxCell>
        <mxCell id="22Rc8J1v0Y2fWhT6ENVS-37" value="sheet" style="swimlane;childLayout=stackLayout;horizontal=1;startSize=50;horizontalStack=0;rounded=1;fontSize=14;fontStyle=0;strokeWidth=2;resizeParent=0;resizeLast=1;shadow=0;dashed=0;align=center;arcSize=4;whiteSpace=wrap;html=1;" vertex="1" parent="1">
          <mxGeometry x="827" y="350" width="163" height="140" as="geometry" />
        </mxCell>
        <mxCell id="22Rc8J1v0Y2fWhT6ENVS-38" value="id&lt;br&gt;user_id&lt;br&gt;title&lt;br&gt;img_url&lt;br&gt;create_time" style="align=left;strokeColor=none;fillColor=none;spacingLeft=4;fontSize=12;verticalAlign=top;resizable=0;rotatable=0;part=1;html=1;" vertex="1" parent="22Rc8J1v0Y2fWhT6ENVS-37">
          <mxGeometry y="50" width="163" height="90" as="geometry" />
        </mxCell>
        <mxCell id="22Rc8J1v0Y2fWhT6ENVS-41" style="rounded=0;orthogonalLoop=1;jettySize=auto;html=1;exitX=0;exitY=0.5;exitDx=0;exitDy=0;entryX=1;entryY=0.5;entryDx=0;entryDy=0;" edge="1" parent="1" source="22Rc8J1v0Y2fWhT6ENVS-39" target="42kxm2y_DV3wNSiduFRc-2">
          <mxGeometry relative="1" as="geometry" />
        </mxCell>
        <mxCell id="22Rc8J1v0Y2fWhT6ENVS-43" style="rounded=0;orthogonalLoop=1;jettySize=auto;html=1;exitX=1;exitY=0.5;exitDx=0;exitDy=0;entryX=0;entryY=0.25;entryDx=0;entryDy=0;shape=link;" edge="1" parent="1" source="22Rc8J1v0Y2fWhT6ENVS-39" target="22Rc8J1v0Y2fWhT6ENVS-38">
          <mxGeometry relative="1" as="geometry" />
        </mxCell>
        <mxCell id="22Rc8J1v0Y2fWhT6ENVS-39" value="own" style="shape=rhombus;double=1;perimeter=rhombusPerimeter;whiteSpace=wrap;html=1;align=center;" vertex="1" parent="1">
          <mxGeometry x="540" y="330" width="120" height="60" as="geometry" />
        </mxCell>
        <mxCell id="22Rc8J1v0Y2fWhT6ENVS-45" value="has" style="shape=rhombus;double=1;perimeter=rhombusPerimeter;whiteSpace=wrap;html=1;align=center;" vertex="1" parent="1">
          <mxGeometry x="630" y="555" width="120" height="60" as="geometry" />
        </mxCell>
        <mxCell id="22Rc8J1v0Y2fWhT6ENVS-48" value="has" style="shape=rhombus;double=1;perimeter=rhombusPerimeter;whiteSpace=wrap;html=1;align=center;" vertex="1" parent="1">
          <mxGeometry x="250" y="570" width="120" height="60" as="geometry" />
        </mxCell>
        <mxCell id="22Rc8J1v0Y2fWhT6ENVS-51" value="song" style="swimlane;childLayout=stackLayout;horizontal=1;startSize=50;horizontalStack=0;rounded=1;fontSize=14;fontStyle=0;strokeWidth=2;resizeParent=0;resizeLast=1;shadow=0;dashed=0;align=center;arcSize=4;whiteSpace=wrap;html=1;" vertex="1" parent="1">
          <mxGeometry x="830" y="680" width="160" height="150" as="geometry" />
        </mxCell>
        <mxCell id="22Rc8J1v0Y2fWhT6ENVS-52" value="id&lt;br&gt;title&lt;br&gt;songer&lt;br&gt;song_url&lt;br&gt;img_url&lt;br&gt;lrc_url&lt;br&gt;" style="align=left;strokeColor=none;fillColor=none;spacingLeft=4;fontSize=12;verticalAlign=top;resizable=0;rotatable=0;part=1;html=1;" vertex="1" parent="22Rc8J1v0Y2fWhT6ENVS-51">
          <mxGeometry y="50" width="160" height="100" as="geometry" />
        </mxCell>
        <mxCell id="22Rc8J1v0Y2fWhT6ENVS-56" style="rounded=0;orthogonalLoop=1;jettySize=auto;html=1;exitX=0.5;exitY=1;exitDx=0;exitDy=0;entryX=0.5;entryY=0;entryDx=0;entryDy=0;endArrow=none;endFill=0;" edge="1" parent="1" source="22Rc8J1v0Y2fWhT6ENVS-54" target="22Rc8J1v0Y2fWhT6ENVS-51">
          <mxGeometry relative="1" as="geometry" />
        </mxCell>
        <mxCell id="22Rc8J1v0Y2fWhT6ENVS-54" value="has" style="shape=rhombus;perimeter=rhombusPerimeter;whiteSpace=wrap;html=1;align=center;" vertex="1" parent="1">
          <mxGeometry x="848.5" y="540" width="120" height="60" as="geometry" />
        </mxCell>
        <mxCell id="22Rc8J1v0Y2fWhT6ENVS-55" style="rounded=0;orthogonalLoop=1;jettySize=auto;html=1;exitX=0.5;exitY=1;exitDx=0;exitDy=0;entryX=0.5;entryY=0;entryDx=0;entryDy=0;endArrow=none;endFill=0;" edge="1" parent="1" source="22Rc8J1v0Y2fWhT6ENVS-38" target="22Rc8J1v0Y2fWhT6ENVS-54">
          <mxGeometry relative="1" as="geometry" />
        </mxCell>
        <mxCell id="22Rc8J1v0Y2fWhT6ENVS-60" style="rounded=0;orthogonalLoop=1;jettySize=auto;html=1;exitX=1;exitY=0.5;exitDx=0;exitDy=0;entryX=0;entryY=0.25;entryDx=0;entryDy=0;endArrow=none;endFill=0;" edge="1" parent="1" source="22Rc8J1v0Y2fWhT6ENVS-58" target="22Rc8J1v0Y2fWhT6ENVS-38">
          <mxGeometry relative="1" as="geometry" />
        </mxCell>
        <mxCell id="22Rc8J1v0Y2fWhT6ENVS-58" value="collect" style="shape=rhombus;perimeter=rhombusPerimeter;whiteSpace=wrap;html=1;align=center;" vertex="1" parent="1">
          <mxGeometry x="540" y="440" width="120" height="60" as="geometry" />
        </mxCell>
        <mxCell id="22Rc8J1v0Y2fWhT6ENVS-59" style="rounded=0;orthogonalLoop=1;jettySize=auto;html=1;exitX=1;exitY=0.75;exitDx=0;exitDy=0;endArrow=none;endFill=0;entryX=0;entryY=0.5;entryDx=0;entryDy=0;" edge="1" parent="1" source="42kxm2y_DV3wNSiduFRc-2" target="22Rc8J1v0Y2fWhT6ENVS-58">
          <mxGeometry relative="1" as="geometry" />
        </mxCell>
      </root>
    </mxGraphModel>
  </diagram>
</mxfile>
